<svg width="343" height="233" viewbox="0 0 343 233" xmlns="http://www.w3.org/2000/svg">
  <defs>
    <linearGradient x1="50%" y1="100%" x2="50%" y2="0%" id="a">
      <stop stop-color="gray" stop-opacity=".3" offset="0%"/>
      <stop stop-color="gray" stop-opacity=".1" offset="54%"/>
      <stop stop-color="gray" stop-opacity=".1" offset="100%"/>
    </linearGradient>
    <linearGradient x1="50%" y1="100%" x2="50%" y2="0%" id="b">
      <stop stop-color="gray" stop-opacity=".3" offset="0%"/>
      <stop stop-color="gray" stop-opacity=".1" offset="54%"/>
      <stop stop-color="gray" stop-opacity=".1" offset="100%"/>
    </linearGradient>
    <linearGradient x1="50%" y1="100%" x2="50%" y2="0%" id="c">
      <stop stop-color="gray" stop-opacity=".3" offset="0%"/>
      <stop stop-color="gray" stop-opacity=".1" offset="54%"/>
      <stop stop-color="gray" stop-opacity=".1" offset="100%"/>
    </linearGradient>
  </defs>
  <g fill="none" fill-rule="evenodd">
    <path d="M29.3 6V.2H.2v26c0 3.1 2.5 5.6 5.7 5.6h17.8c3.1 0 5.6-2.5 5.6-5.5v-5.8c2.8 0 5.3-1.4 6.6-3.7 1.4-2.3 1.4-5 0-7.3a7.6 7.6 0 0 0-6.6-3.7zm0 11.8v-9c1.7-.1 3.3.7 4.2 2.2.9 1.4.9 3.1 0 4.5a4.7 4.7 0 0 1-4.2 2.3z" opacity=".7" transform="translate(287 186)" fill="url(#a)" fill-rule="nonzero"/>
    <path d="M316 193c-3.9 0-7 3-7 6.5 0 3.6 3.1 6.5 7 6.5s7-3 7-6.5c0-1.7-.7-3.4-2-4.6a7.3 7.3 0 0 0-5-1.9zm0 10.5c-2.4 0-4.3-1.8-4.3-4s2-4 4.3-4c2.4 0 4.3 1.8 4.3 4 0 1-.4 2-1.2 2.8-.9.8-2 1.2-3.1 1.2z" fill="#6C63FF" fill-rule="nonzero"/>
    <path d="M316 193c-3.9 0-7 3-7 6.5 0 3.6 3.1 6.5 7 6.5s7-3 7-6.5c0-1.7-.7-3.4-2-4.6a7.3 7.3 0 0 0-5-1.9zm0 10.5c-2.4 0-4.3-1.8-4.3-4s2-4 4.3-4c2.4 0 4.3 1.8 4.3 4 0 1-.4 2-1.2 2.8-.9.8-2 1.2-3.1 1.2z" fill="#000" fill-rule="nonzero" opacity=".1"/>
    <path d="M289 187h26v26.5c0 2-1.5 3.5-3.4 3.5h-19.2a3.4 3.4 0 0 1-3.4-3.5V187z" fill="#6C63FF"/>
    <path fill="#E0E0E0" d="M0 217h343v12H0z"/>
    <path d="M115.6 139c-3.7-13.2-24.4-23-40-25V101.8a39 39 0 0 0 23.6-24.7 42 42 0 0 0 2.5-5.4c1.6-.6 2.9-3.3 2.9-6.6 0-1.2-.2-2.3-.5-3.4a42.6 42.6 0 0 0-13.6-36.4c.1-.7.2-1.4.1-2-.3-5.5-6.2-9.2-11.6-9.5 3-3.3 3.7-8 2-12.1-3.6 5-10.7 5.6-16.9 5.6 2.7-1 3.9-4.7 2.3-7C60 9 47.4 10.4 39.8 18c-1.6 1.6-3 3.6-4.1 5.6a42.2 42.2 0 0 0-15.6 38c-.3 1.2-.5 2.3-.5 3.5 0 3.3 1.3 6 3 6.6a42 42 0 0 0 2.5 5.4 39 39 0 0 0 23.3 24.6v12.1C32.8 116 12 126 8.3 139.2A880.4 880.4 0 0 0 0 170.8c14.3 10 44.2 15.9 62.9 15.9 17.8 0 46.9-5.3 60.7-14.4-1.4-8.2-4.9-21.4-8.1-33.3z" opacity=".7" transform="translate(110)" fill="url(#b)"/>
    <path d="M173 184c17.3 0 45.6-5.1 59-14-1.5-7.9-4.8-20.7-8-32.2-4-14.7-29.5-24.8-44.7-24.8h-14.6c-15.3 0-40.8 10.2-44.8 24.9a854 854 0 0 0-7.9 30.7c13.8 9.7 42.9 15.4 61 15.4z" fill="#6C63FF"/>
    <circle fill="#72351C" cx="172" cy="58" r="41"/>
    <path d="M159 92h26v21a13 13 0 0 1-13 13 13 13 0 0 1-13-13V92z" fill="#000" opacity=".1"/>
    <path d="M162.7 91h18.6c2 0 3.7 1.7 3.7 3.8v17.1a13 13 0 0 1-13 13.1 13 13 0 0 1-13-13V94.7a3.8 3.8 0 0 1 3.7-3.8z" fill="#FDA57D"/>
    <path d="M159 101.8a40.9 40.9 0 0 0 26 .1V99h-26v2.8z" fill="#000" opacity=".1"/>
    <circle fill="#FDA57D" cx="172" cy="67" r="38"/>
    <path d="M145 31.5s16 32.5 61 13.6l-10.5-16.4L177 22 145 31.5z" fill="#000" opacity=".1"/>
    <path d="M145 31.5s16 32.5 61 13.6l-10.5-16.4L177 22 145 31.5z" fill="#72351C"/>
    <path d="M144.8 29c1-3.3 3-6.3 5.4-8.7 7.5-7.4 19.8-9 26.1-17.3 1.5 2.3.4 5.9-2.3 6.9 6 0 13-.6 16.5-5.5 1.7 4 1 8.6-2 11.8 5.4.3 11.1 3.9 11.5 9.1.2 3.6-2 7-5 9-2.9 2-6.4 2.9-9.9 3.7-10.2 2.2-47 11.5-40.3-9z" fill="#72351C"/>
    <path d="M210 66h-1l-19.6 17.5c-18.9-8.9-32.8 0-32.8 0l-20.5-16.8-2.1.3a38 38 0 0 0 76-1zm-38 24.2c-7.5 0-13.5-1.5-13.5-3.4 0-1.8 6-3.3 13.4-3.3s13.4 1.5 13.4 3.3c0 1.9-6 3.4-13.4 3.4z" fill="#72351C" fill-rule="nonzero"/>
    <ellipse fill="#FDA57D" cx="134.5" cy="66.5" rx="3.5" ry="6.5"/>
    <ellipse fill="#FDA57D" cx="209.5" cy="66.5" rx="3.5" ry="6.5"/>
    <rect x=".1" y=".2" width="146.7" height="83.6" rx="14.5" opacity=".7" transform="translate(98 133)" fill="url(#c)"/>
    <rect fill="#535461" x="102" y="135" width="140" height="82" rx="26.8"/>
    <circle fill="#FFF" cx="172" cy="176" r="5"/>
    <path fill="#E0E0E0" d="M15 229h314v4H15z"/>
    <path fill="#000" opacity=".1" d="M15 228h314v2H15zM310.3 187v24.8c0 2.9-2.4 5.2-5.3 5.2h2.7c3 0 5.3-2.3 5.3-5.2V187h-2.7z"/>
    <path d="M293.3 167.7c-.5 0-1 .2-1.2.5-.4.7.3 1.4.9 1.8 1 .8 2.2 1.5 3 2.6.7 1.1 1 2.7.1 3.7-1 1.4-3.6 1.7-3.8 3.4-.2 1 .8 2 1.8 2.5 2.5 1.3 5.6 1.7 7.4 3.8.7-1.4 2.4-2.3 4-2.6 1.6-.4 3.3-.4 5-.6.5 0 1-.2 1.3-.7.5-.9-.8-2-.4-2.9.4-.7 1.4-.6 2.1-.9 1.2-.4 1.7-2 1.4-3.1a6 6 0 0 0-2.3-3c-2.8-2-6-3.2-9.4-4-1.6-.5-3.4-1.1-5-1.2-1.6 0-3.4.4-4.9.7z" fill="#EEE"/>
  </g>
</svg>
