<?xml version="1.0" encoding="UTF-8"?>
<svg width="337" height="242" viewBox="0 0 337 242" version="1.1" xmlns="http://www.w3.org/2000/svg" xmlns:xlink="http://www.w3.org/1999/xlink">
    <defs>
        <linearGradient x1="50%" y1="100%" x2="50%" y2="0.0362318841%" id="linearGradient-1">
            <stop stop-color="#808080" stop-opacity="0.25" offset="0%"></stop>
            <stop stop-color="#808080" stop-opacity="0.12" offset="54%"></stop>
            <stop stop-color="#808080" stop-opacity="0.1" offset="100%"></stop>
        </linearGradient>
        <linearGradient x1="50%" y1="99.9565972%" x2="50%" y2="0%" id="linearGradient-2">
            <stop stop-color="#808080" stop-opacity="0.25" offset="0%"></stop>
            <stop stop-color="#808080" stop-opacity="0.12" offset="54%"></stop>
            <stop stop-color="#808080" stop-opacity="0.1" offset="100%"></stop>
        </linearGradient>
        <linearGradient x1="49.9931239%" y1="100.004517%" x2="49.9931239%" y2="-0.00210674363%" id="linearGradient-3">
            <stop stop-color="#808080" stop-opacity="0.25" offset="0%"></stop>
            <stop stop-color="#808080" stop-opacity="0.12" offset="54%"></stop>
            <stop stop-color="#808080" stop-opacity="0.1" offset="100%"></stop>
        </linearGradient>
        <linearGradient x1="50.0210704%" y1="0%" x2="50.0210704%" y2="100%" id="linearGradient-4">
            <stop stop-color="#E0E0E0" offset="0%"></stop>
            <stop stop-color="#FCCC63" offset="31%"></stop>
            <stop stop-color="#F55F44" offset="77%"></stop>
        </linearGradient>
        <linearGradient x1="50%" y1="0%" x2="50%" y2="100%" id="linearGradient-5">
            <stop stop-color="#E0E0E0" offset="0%"></stop>
            <stop stop-color="#FCCC63" offset="31%"></stop>
            <stop stop-color="#F55F44" offset="77%"></stop>
        </linearGradient>
        <linearGradient x1="49.971933%" y1="99.9126132%" x2="49.971933%" y2="-0.086983954%" id="linearGradient-6">
            <stop stop-color="#808080" stop-opacity="0.25" offset="0%"></stop>
            <stop stop-color="#808080" stop-opacity="0.12" offset="54%"></stop>
            <stop stop-color="#808080" stop-opacity="0.1" offset="100%"></stop>
        </linearGradient>
        <linearGradient x1="50.2887832%" y1="99.9990848%" x2="50.2887832%" y2="0.186964431%" id="linearGradient-7">
            <stop stop-color="#808080" stop-opacity="0.25" offset="0%"></stop>
            <stop stop-color="#808080" stop-opacity="0.12" offset="54%"></stop>
            <stop stop-color="#808080" stop-opacity="0.1" offset="100%"></stop>
        </linearGradient>
    </defs>
    <g stroke="none" stroke-width="1" fill="none" fill-rule="evenodd">
        <g transform="translate(-1014.000000, -4632.000000)">
            <g transform="translate(585.000000, 2244.000000)">
                <g transform="translate(0.000000, 284.000000)">
                    <g transform="translate(0.000000, 2104.000000)">
                        <g transform="translate(429.000000, 0.000000)">
                            <path d="M294.197862,210.595536 C291.459931,210.830863 288.705388,210.794096 285.974724,210.485773 C255.955816,207.169149 215.077617,208.112518 181.754612,228.745004 C135.669415,257.274498 63.4453256,232.850736 31.5858606,219.563474 C7.2429969,209.414841 -5.39451173,184.557961 2.19630565,161.225896 C2.30317676,160.896607 2.41301651,160.567318 2.52879354,160.238029 C7.30533838,146.372286 16.7337451,135.520577 28.4094138,129.768399 C38.5859182,124.754898 53.443971,114.285876 60.0551366,94.1695725 C62.7862871,85.8631796 66.5327132,78.0492371 71.3983173,71.2379949 C84.4276867,52.9965627 111.703569,25.8316912 158.614048,26.0007856 C166.838846,26.0406032 175.002024,27.4213923 182.781762,30.0887176 C199.919732,35.9239586 215.398231,47.7872677 227.201551,64.2339257 C234.732995,74.7237133 246.019772,84.4748253 262.17809,85.2698658 C284.603211,86.3793626 306.004151,96.8127854 322.058566,115.38054 C322.521674,115.914523 322.978845,116.451472 323.436016,116.994354 C352.021069,151.023866 332.166792,207.278912 294.197862,210.595536 Z" fill="#F0EFFF"></path>
                            <g opacity="0.7" transform="translate(78.000000, 199.000000)" fill="url(#linearGradient-1)">
                                <circle cx="3.98896552" cy="3.94758621" r="3.80689655"></circle>
                            </g>
                            <circle fill="#000000" opacity="0.2" cx="82" cy="203" r="4"></circle>
                            <circle fill="#FFFFFF" cx="60.5" cy="123.5" r="1.5"></circle>
                            <circle fill="#FFFFFF" cx="167.5" cy="210.5" r="1.5"></circle>
                            <circle fill="#FFFFFF" cx="104" cy="219" r="1"></circle>
                            <circle fill="#FFFFFF" cx="292" cy="178" r="1"></circle>
                            <circle fill="#FFFFFF" cx="243" cy="101" r="1"></circle>
                            <circle fill="#FFFFFF" cx="312" cy="138" r="1"></circle>
                            <circle fill="#FFFFFF" cx="86.5" cy="73.5" r="1.5"></circle>
                            <polygon fill="#FFFFFF" points="45 176.247253 43.7538884 176.247253 43.7538884 175 43.2461116 175 43.2461116 176.247253 42 176.247253 42 176.755495 43.2461116 176.755495 43.2461116 178 43.7538884 178 43.7538884 176.755495 45 176.755495"></polygon>
                            <polygon fill="#FFFFFF" points="78 175.247253 76.7538884 175.247253 76.7538884 174 76.2461116 174 76.2461116 175.247253 75 175.247253 75 175.755495 76.2461116 175.755495 76.2461116 177 76.7538884 177 76.7538884 175.755495 78 175.755495"></polygon>
                            <polygon fill="#FFFFFF" points="127 202.247253 125.753888 202.247253 125.753888 201 125.246112 201 125.246112 202.247253 124 202.247253 124 202.755495 125.246112 202.755495 125.246112 204 125.753888 204 125.753888 202.755495 127 202.755495"></polygon>
                            <polygon fill="#FFFFFF" points="195 38.8313253 194.168675 38.8313253 194.168675 38 193.831325 38 193.831325 38.8313253 193 38.8313253 193 39.1686747 193.831325 39.1686747 193.831325 40 194.168675 40 194.168675 39.1686747 195 39.1686747"></polygon>
                            <polygon fill="#FFFFFF" points="282 94.8313253 281.168675 94.8313253 281.168675 94 280.831325 94 280.831325 94.8313253 280 94.8313253 280 95.1686747 280.831325 95.1686747 280.831325 96 281.168675 96 281.168675 95.1686747 282 95.1686747"></polygon>
                            <polygon fill="#FFFFFF" points="231 131.831325 230.168675 131.831325 230.168675 131 229.831325 131 229.831325 131.831325 229 131.831325 229 132.168675 229.831325 132.168675 229.831325 133 230.168675 133 230.168675 132.168675 231 132.168675"></polygon>
                            <polygon fill="#FFFFFF" points="20 154.831325 19.1686747 154.831325 19.1686747 154 18.8313253 154 18.8313253 154.831325 18 154.831325 18 155.168675 18.8313253 155.168675 18.8313253 156 19.1686747 156 19.1686747 155.168675 20 155.168675"></polygon>
                            <polygon fill="#FFFFFF" points="46 205.831325 45.1686747 205.831325 45.1686747 205 44.8313253 205 44.8313253 205.831325 44 205.831325 44 206.168675 44.8313253 206.168675 44.8313253 207 45.1686747 207 45.1686747 206.168675 46 206.168675"></polygon>
                            <polygon fill="#FFFFFF" points="125 45.8313253 124.168675 45.8313253 124.168675 45 123.831325 45 123.831325 45.8313253 123 45.8313253 123 46.1686747 123.831325 46.1686747 123.831325 47 124.168675 47 124.168675 46.1686747 125 46.1686747"></polygon>
                            <polygon fill="#FFFFFF" points="88 134.831325 87.1686747 134.831325 87.1686747 134 86.8313253 134 86.8313253 134.831325 86 134.831325 86 135.168675 86.8313253 135.168675 86.8313253 136 87.1686747 136 87.1686747 135.168675 88 135.168675"></polygon>
                            <polygon fill="#FFFFFF" points="96 109.831325 95.1686747 109.831325 95.1686747 109 94.8313253 109 94.8313253 109.831325 94 109.831325 94 110.168675 94.8313253 110.168675 94.8313253 111 95.1686747 111 95.1686747 110.168675 96 110.168675"></polygon>
                            <g opacity="0.7" transform="translate(218.000000, 162.000000)" fill="url(#linearGradient-2)">
                                <circle cx="3.54375" cy="3.39791667" r="3.36"></circle>
                            </g>
                            <circle fill="#000000" opacity="0.2" cx="221" cy="165" r="3"></circle>
                            <circle fill="#000000" opacity="0.2" cx="230.5" cy="187.5" r="3.5"></circle>
                            <g opacity="0.7" transform="translate(112.000000, 0.000000)" fill="url(#linearGradient-3)">
                                <path d="M85.991134,90.9547519 C86.0155047,83.5300937 84.2407051,76.2105686 80.8193127,69.6254286 C79.1968385,66.5326767 77.7162199,64.6130376 76.5754639,63.4310376 C75.6819905,62.4848743 74.2859543,62.2154876 73.1059107,62.7615338 C72.6457172,62.9251325 72.2298545,63.1939101 71.8912715,63.5465714 C70.3515464,65.1462707 68.9595876,67.2614286 67.7538144,69.5098947 C64.1565019,76.252003 62.2907216,83.7859434 62.3248797,91.4316992 L62.3248797,96.0175038 L59.3902405,96.0175038 L59.3902405,42.6912331 C59.3902405,31.5170376 56.895945,20.4939248 52.0019244,10.717985 C49.6849485,6.08478195 47.5689347,3.20532331 45.9464605,1.43676692 C45.1496515,0.526224687 43.999968,0.00414545444 42.7916495,0.00414545444 C41.583331,0.00414545444 40.4336474,0.526224687 39.6368385,1.43676692 C37.4380756,3.83335338 35.4520962,7.00312782 33.7261856,10.3713835 C28.5868729,20.3606165 25.9773196,31.7007068 25.9773196,43.2007669 L25.9773196,95.9967669 L23.4416495,95.9967669 L23.4416495,91.188782 C23.4738491,83.547975 21.6081127,76.0193023 18.0127148,69.2817895 C16.7980756,67.0333233 15.4061168,64.9181654 13.8752577,63.3184662 C12.9624354,62.3467099 11.5243364,62.0848294 10.328866,62.6726617 L10.4352577,62.7289474 C10.0641026,62.8945027 9.72803187,63.1298129 9.44522337,63.4221504 C8.30742268,64.6071128 6.82680412,66.5237895 5.2043299,69.6165414 C1.78293754,76.2016814 0.00813788634,83.5212065 0.0325085911,90.9458647 L0.0325085911,170.634586 L9.08762887,170.634586 L8.08872852,177.184466 L8.08872852,196.774857 L15.4947766,196.774857 L15.4947766,177.184466 L14.5047423,170.631624 L23.4298282,170.631624 L23.4298282,98.0526767 L25.9654983,98.0526767 L25.9654983,170.317609 L33.1971821,170.317609 L32.1598625,177.184466 L32.1598625,196.774857 L39.5659107,196.774857 L39.5659107,177.184466 L38.5285911,170.308722 L48.2811684,170.308722 L47.2379381,177.184466 L47.2379381,196.774857 L54.6439863,196.774857 L54.6439863,177.184466 L53.6066667,170.308722 L59.3813746,170.308722 L59.3813746,98.0615639 L62.3160137,98.0615639 L62.3160137,170.75012 L64.6950515,170.75012 L64.6950515,170.640511 L72.5621306,170.640511 L71.5750515,177.184466 L71.5750515,196.774857 L78.9810997,196.774857 L78.9810997,177.184466 L77.9910653,170.631624 L85.991134,170.631624 L85.991134,90.9547519 Z"></path>
                            </g>
                            <polygon fill="#535461" points="129 174 122 174 123.250737 166 127.749263 166"></polygon>
                            <g opacity="0.1" transform="translate(123.000000, 166.000000)" fill="#000000">
                                <polygon points="0.192105263 2.96 4.82631579 2.96 4.51578947 0.276666667 0.502631579 0.276666667"></polygon>
                            </g>
                            <polygon fill="#535461" points="190 174 183 174 184.248314 166 188.751686 166"></polygon>
                            <g opacity="0.1" transform="translate(184.000000, 166.000000)" fill="#000000">
                                <polygon points="0.0222222222 2.96 4.91666667 2.96 4.58888889 0.276666667 0.35 0.276666667"></polygon>
                            </g>
                            <polygon fill="#535461" points="152 174 145 174 146.248314 166 150.751686 166"></polygon>
                            <g opacity="0.1" transform="translate(146.000000, 166.000000)" fill="#000000">
                                <polygon points="0.218421053 2.96 4.85526316 2.96 4.54473684 0.276666667 0.528947368 0.276666667"></polygon>
                            </g>
                            <polygon fill="#535461" points="166 174 159 174 160.248314 166 164.748735 166"></polygon>
                            <g opacity="0.1" transform="translate(160.000000, 166.000000)" fill="#000000">
                                <polygon points="0.0361111111 2.96 4.93055556 2.96 4.6 0.276666667 0.363888889 0.276666667"></polygon>
                            </g>
                            <rect fill="#535461" x="129" y="95" width="50" height="2"></rect>
                            <path d="M187.15013,62.9363247 C186.619087,62.3401263 185.864703,62 185.073408,62 C184.282112,62 183.527729,62.3401263 182.996686,62.9363247 C181.550607,64.5043503 180.242389,66.5761712 179.101365,68.7791577 C175.716756,75.4085952 173.966339,82.7740023 174.00049,90.2426255 L174.00049,168 L195.999664,168 L195.999664,89.9147114 C196.027201,82.6527376 194.361606,75.4874297 191.139313,69.0057165 C189.611104,65.9769827 188.220756,64.081043 187.15013,62.9363247 Z" fill="#E0E0E0"></path>
                            <path d="M123.846953,62.9363247 C124.377997,62.3401263 125.132382,62 125.923678,62 C126.714975,62 127.46936,62.3401263 128.000404,62.9363247 C129.449419,64.5043503 130.754706,66.5761712 131.898665,68.7791577 C135.281956,75.4090982 137.032296,82.7741689 136.999549,90.2426255 L136.999549,168 L115.000336,168 L115.000336,89.9147114 C114.972799,82.6527376 116.638396,75.4874297 119.860695,69.0057165 C121.385974,65.9769827 122.776324,64.081043 123.846953,62.9363247 Z" fill="#E0E0E0"></path>
                            <polygon fill="#535461" points="115 91 120 91.0285974 120 98 115 98"></polygon>
                            <polygon fill="#535461" points="131 91 136 91.0285974 136 98 131 98"></polygon>
                            <polygon fill="#535461" points="174 91 179 91.0285974 179 98 174 98"></polygon>
                            <polygon fill="#535461" points="191 91 196 91.0285974 196 98 191 98"></polygon>
                            <g opacity="0.1" transform="translate(124.000000, 61.000000)" fill="#000000">
                                <path d="M7.68813953,6.9864986 C6.50906977,4.79226891 5.16372093,2.72868347 3.67023256,1.16689076 C2.80352004,0.22295289 1.40146451,-0.0359146893 0.244883721,0.534453782 C0.568979243,0.693285331 0.861749627,0.907428125 1.10953488,1.16689076 C2.6,2.72868347 3.94837209,4.79226891 5.1244186,6.9864986 C8.61314295,13.5895008 10.4173013,20.9256865 10.3818605,28.3646499 L10.3818605,105.807003 L12.9455814,105.807003 L12.9455814,28.367619 C12.9799438,20.9278322 11.1758608,13.590934 7.68813953,6.9864986 Z"></path>
                            </g>
                            <g opacity="0.1" transform="translate(174.000000, 62.000000)" fill="#000000">
                                <path d="M7.25428571,6.90336134 C8.36571429,4.70913165 9.64,2.64554622 11.0485714,1.0837535 C11.3119286,0.787974471 11.6308876,0.551500954 11.9857143,0.388963585 C10.9118536,-0.0994489825 9.6577678,0.180334642 8.87142857,1.0837535 C7.46,2.64554622 6.18571429,4.70913165 5.07428571,6.90336134 C1.77875424,13.5069481 0.0738163473,20.8427429 0.105714286,28.2815126 L0.105714286,105.735742 L2.28571429,105.735742 L2.28571429,28.287451 C2.25152293,20.8465089 3.95656511,13.5082276 7.25428571,6.90336134 Z"></path>
                            </g>
                            <path d="M125.59587,193 L125.40413,193 C123.524081,193 122,191.475683 122,189.595342 L122,174 L129,174 L129,189.595342 C129,190.498313 128.641352,191.364301 128.002953,192.002799 C127.364555,192.641296 126.498702,193 125.59587,193 Z" fill="url(#linearGradient-4)"></path>
                            <path d="M148.597386,193 L148.402614,193 C146.522925,192.998372 144.999999,191.474531 145,189.595342 L145,174 L152,174 L152,189.595342 C152.000001,191.474531 150.477075,192.998372 148.597386,193 Z" fill="url(#linearGradient-5)"></path>
                            <path d="M162.594435,193 L162.396712,193 C160.519328,192.995121 158.999994,191.472231 159,189.595342 L159,174 L166,174 L166,189.595342 C166,191.475683 164.475277,193 162.594435,193 Z" fill="url(#linearGradient-5)"></path>
                            <path d="M186.597386,192.999995 L186.411467,192.999995 C185.507233,193.001562 184.639497,192.643549 183.999553,192.004882 C183.359608,191.366215 182.999999,190.499332 183,189.595337 L183,174 L190,174 L190,189.595337 C190.000001,191.474526 188.477075,192.998366 186.597386,192.999995 Z" fill="url(#linearGradient-5)"></path>
                            <path d="M158.149159,2.39381438 C157.399085,1.51018772 156.2929,1 155.127103,1 C153.961305,1 152.855121,1.51018772 152.105047,2.39381438 C150.011589,4.72714185 148.09757,7.80962142 146.422804,11.090493 C141.500187,20.8146649 139,31.8535543 139,43.0464196 L139,167 L171,167 L171,42.5489589 C171,31.6729287 168.607477,20.9331079 163.930093,11.4280557 C161.731963,6.91833771 159.70729,4.11419923 158.149159,2.39381438 Z" fill="#EEEEEE"></path>
                            <rect fill="#535461" x="146" y="16" width="17" height="8" rx="4"></rect>
                            <g opacity="0.1" transform="translate(139.000000, 47.000000)" fill="#000000">
                                <rect x="0.143551402" y="0.14" width="31.6740187" height="1.644"></rect>
                            </g>
                            <path d="M224.978121,92.9587014 C224.168903,91.8963591 223.156699,91.0052549 222.000246,90.3370982 C218.358491,88.2378098 213.792367,88.6387896 210.572484,91.3406412 C207.352601,94.0424929 206.16609,98.4686343 207.60297,102.418067 C209.03985,106.367499 212.793487,108.997403 216.9973,109 C217.210006,109 217.422711,109 217.629589,108.976697 C221.302413,108.745021 224.551153,106.515379 226.087199,103.172153 C227.623246,99.828927 227.198346,95.9124471 224.981034,92.9761787 L224.978121,92.9587014 Z" fill="url(#linearGradient-6)"></path>
                            <path d="M226.999994,98.5029636 C226.999194,103.514494 223.105091,107.662913 218.104398,107.979512 C217.908344,107.979512 217.706437,107.999998 217.50453,107.999998 C213.509933,108.00238 209.940711,105.504801 208.573848,101.750715 C207.206985,97.9966296 208.334608,93.7883635 211.395316,91.221057 C214.456024,88.6537506 218.795678,88.2760916 222.253725,90.2761023 C223.353521,90.9143497 224.314597,91.7661269 225.080418,92.7813294 C226.328148,94.427537 227.002382,96.4372092 226.999994,98.5029636 Z" fill="#000000" opacity="0.2"></path>
                            <path d="M214.613634,92.1008658 C214.062688,92.3194697 213.531215,92.5776317 213.024119,92.8729703 C212.68559,93.0434665 212.394462,93.2838966 212.173532,93.5754339 C211.949535,93.8756272 211.941778,94.2701751 212.153827,94.5776558 C212.413273,94.9046647 212.912459,94.9531105 213.352531,94.9773334 C213.814656,95.0316037 214.284118,94.9881136 214.725294,94.8501632 C215.023182,94.7143242 215.29409,94.5331397 215.526619,94.3142319 L216.442889,93.5481832 C216.771301,93.2817315 217.099713,92.9153603 216.971632,92.5399056 C216.817721,92.2674739 216.524898,92.0852131 216.193296,92.0554479 C215.403411,91.9135546 214.584515,92.0462185 213.894411,92.4278748" fill="#000000" opacity="0.1"></path>
                            <g opacity="0.1" transform="translate(211.000000, 101.000000)" fill="#000000">
                                <circle cx="1" cy="0.91" r="1"></circle>
                            </g>
                            <g opacity="0.1" transform="translate(220.000000, 97.000000)" fill="#000000">
                                <ellipse cx="2.06769231" cy="2" rx="1.92615385" ry="1.78857143"></ellipse>
                            </g>
                            <g opacity="0.1" transform="translate(220.000000, 90.000000)" fill="#000000">
                                <path d="M4.88611111,2.62777778 C4.87200503,3.89361791 3.86644092,4.92534719 2.60138057,4.97195788 C1.33632023,5.01856858 0.25755826,4.06363554 0.150338037,2.80226563 C0.0431178139,1.54089572 0.945222671,0.417583063 2.2,0.25 C3.24501853,0.855477043 4.15831755,1.66394029 4.88611111,2.62777778 Z"></path>
                            </g>
                            <g opacity="0.1" transform="translate(217.000000, 103.000000)" fill="#000000">
                                <path d="M7.74461538,1.025 C6.0047544,3.2608258 3.23314814,4.66112728 0.212307692,4.83055556 C0.212307692,4.70555556 0.193846154,4.58055556 0.193846154,4.45277778 C0.195554377,2.83955813 1.20368432,1.36477611 2.80015689,0.640034959 C4.39662947,-0.084706195 6.30916299,0.0641996048 7.74461538,1.025 Z"></path>
                            </g>
                            <path d="M93.6108092,147.805748 C93.046686,147.059009 92.3395201,146.432355 91.530657,145.962421 C88.9857304,144.467673 85.7774528,144.733128 83.5121811,146.625877 C81.2469094,148.518625 80.4122437,151.631252 81.426094,154.405292 C82.4399443,157.179332 85.0840791,159.017672 88.0346029,158.999872 C88.1831852,158.999872 88.3259407,158.999872 88.4774364,158.985289 C91.0345873,158.812967 93.2926364,157.253849 94.3621072,154.922091 C95.4315781,152.590334 95.1410563,149.859671 93.6049824,147.805748 L93.6108092,147.805748 Z" fill="url(#linearGradient-7)"></path>
                            <path d="M94.9999847,152.015488 C94.9992025,155.709223 92.1282231,158.766694 88.4414955,159 C88.2961635,159 88.1322786,159 87.9993154,159 C85.0566946,158.999283 82.4286259,157.158661 81.4223802,154.393708 C80.4161346,151.628756 81.2465309,148.52975 83.500508,146.638218 C85.7544851,144.746687 88.9508515,144.466445 91.49965,145.936891 C92.3116645,146.409369 93.0204099,147.040237 93.5837716,147.792007 C94.5056369,149.006787 95.0031805,150.490579 94.9999847,152.015488 Z" fill="#000000" opacity="0.2"></path>
                            <path d="M86.5566346,148.068897 C86.2269,148.212973 85.9090984,148.384261 85.6063568,148.581077 C85.4045292,148.696665 85.2302106,148.856772 85.0959702,149.049852 C84.9680099,149.253318 84.9680099,149.514824 85.0959702,149.71829 C85.2853514,149.910143 85.5470245,150.007404 85.8122033,149.984508 C86.0893121,150.021204 86.3709273,149.992503 86.6355894,149.900591 C86.8148797,149.809734 86.9779074,149.688419 87.1177778,149.541776 L87.664822,149.03249 C87.8565695,148.853082 88.0652358,148.610014 87.9806413,148.361158 C87.8928397,148.175827 87.7156283,148.052388 87.5153718,148.037067 C87.0433893,147.94221 86.5538981,148.030914 86.1421217,148.285922" fill="#000000" opacity="0.1"></path>
                            <g opacity="0.1" transform="translate(83.000000, 153.000000)" fill="#000000">
                                <circle cx="0.965" cy="0.97" r="1"></circle>
                            </g>
                            <g opacity="0.1" transform="translate(90.000000, 151.000000)" fill="#000000">
                                <ellipse cx="1.548" cy="1.46666667" rx="1.311" ry="1.45666667"></ellipse>
                            </g>
                            <g opacity="0.1" transform="translate(89.000000, 146.000000)" fill="#000000">
                                <path d="M3.91076923,1.96 C3.90301833,2.94770498 3.11921853,3.75433506 2.132143,3.79043349 C1.14506746,3.82653193 0.304441545,3.07930889 0.224564931,2.09480855 C0.144688318,1.1103082 0.853861656,0.23734349 1.83384615,0.113846154 C2.64296512,0.583707375 3.34928621,1.21154834 3.91076923,1.96 Z"></path>
                            </g>
                            <g opacity="0.1" transform="translate(89.000000, 155.000000)" fill="#000000">
                                <path d="M4.76388889,0.935384615 C3.66792333,2.66332746 1.92221531,3.74566015 0.0194444444,3.87692308 C0.0194444444,3.78153846 0.0194444444,3.68307692 0.0194444444,3.56923077 C0.0204710917,2.32256033 0.655365207,1.18283932 1.66083599,0.622710406 C2.66630678,0.0625814972 3.87087275,0.177573812 4.775,0.92 L4.76388889,0.935384615 Z"></path>
                            </g>
                            <polyline points="248 160 255 163.407311 249.534862 169"></polyline>
                            <circle fill="#FFFFFF" cx="283.5" cy="127.5" r="1"></circle>
                        </g>
                    </g>
                </g>
            </g>
        </g>
    </g>
</svg>