<svg width="305" height="281" viewbox="0 0 305 281" xmlns="http://www.w3.org/2000/svg" xmlns:xlink="http://www.w3.org/1999/xlink">
  <defs>
    <linearGradient x1="50%" y1="100%" x2="50%" y2="0%" id="a">
      <stop stop-color="gray" stop-opacity=".3" offset="0%"/>
      <stop stop-color="gray" stop-opacity=".1" offset="54%"/>
      <stop stop-color="gray" stop-opacity=".1" offset="100%"/>
    </linearGradient>
    <path id="b" d="M.2.3h51.6v34.6H.2z"/>
    <path id="d" d="M.2.1h51.6v34.6H.2z"/>
    <linearGradient x1="0%" y1="50%" y2="50%" id="f">
      <stop stop-color="gray" stop-opacity=".3" offset="0%"/>
      <stop stop-color="gray" stop-opacity=".1" offset="54%"/>
      <stop stop-color="gray" stop-opacity=".1" offset="100%"/>
    </linearGradient>
    <linearGradient x1="0%" y1="50%" y2="50%" id="g">
      <stop stop-color="gray" stop-opacity=".3" offset="0%"/>
      <stop stop-color="gray" stop-opacity=".1" offset="54%"/>
      <stop stop-color="gray" stop-opacity=".1" offset="100%"/>
    </linearGradient>
    <linearGradient x1="50%" y1="100%" x2="50%" y2="0%" id="h">
      <stop stop-color="#B3B3B3" stop-opacity=".3" offset="0%"/>
      <stop stop-color="#B3B3B3" stop-opacity=".1" offset="54%"/>
      <stop stop-color="#B3B3B3" stop-opacity=".1" offset="100%"/>
    </linearGradient>
    <linearGradient x1="50%" y1="99.9%" x2="50%" y2="0%" id="i">
      <stop stop-opacity=".1" offset="0%"/>
      <stop stop-opacity=".1" offset="55%"/>
      <stop stop-opacity="0" offset="100%"/>
    </linearGradient>
    <linearGradient x1="50%" y1="100%" x2="50%" y2="0%" id="j">
      <stop stop-opacity=".1" offset="0%"/>
      <stop stop-opacity=".1" offset="55%"/>
      <stop stop-opacity="0" offset="100%"/>
    </linearGradient>
  </defs>
  <g fill="none" fill-rule="evenodd">
    <path d="M.1.1h161.8V218H.1z" opacity=".5" transform="translate(56 46)" fill="url(#a)"/>
    <path fill="#F2F2F2" d="M58 51h158v210H58z"/>
    <path fill="#E0E0E0" d="M70 59h53v1H70z"/>
    <path fill="#6C63FF" opacity=".7" d="M70 68h53v1H70z"/>
    <path fill="#E0E0E0" d="M134 59h53v1h-53zM142 107h53v1h-53zM143 112h53v1h-53zM145 117h53v1h-53zM142 183h53v1h-53zM143 187h53v1h-53zM145 192h53v1h-53z"/>
    <path d="M0 .1h57.9v57.7H0z" opacity=".5" transform="translate(71 89)" fill="url(#a)"/>
    <path fill="#F5F5F5" d="M71 93h57v54H71z"/>
    <path d="M.2 0h51.6v35.8H.2z" opacity=".5" transform="translate(75 94)" fill="url(#a)"/>
    <path fill="#FFF" d="M75 95h52v35H75z"/>
    <g transform="translate(137 117)">
      <mask id="c" fill="#fff">
        <use xlink:href="#b"/>
      </mask>
      <g mask="url(#c)" fill="#6C63FF" opacity=".4">
        <g transform="translate(-70.3 -20.4)">
          <path d="M2 32.4l12.9-20 5.4 8.7L32.1 9l10 12.1 8.8-18 22.6 36L.2 36.4z"/>
          <ellipse cx="12" cy="4" rx="3.8" ry="3.8"/>
        </g>
      </g>
    </g>
    <path d="M0 .3h57.9v58.3H0z" opacity=".5" transform="translate(71 164)" fill="url(#a)"/>
    <path fill="#F5F5F5" d="M71 167h57v54H71z"/>
    <path d="M.2.3h51.6v35.4H.2z" opacity=".5" transform="translate(75 169)" fill="url(#a)"/>
    <path fill="#FFF" d="M75 169h52v35H75z"/>
    <g transform="translate(137 192)">
      <mask id="e" fill="#fff">
        <use xlink:href="#d"/>
      </mask>
      <g mask="url(#e)" fill="#BDBDBD" opacity=".4">
        <g transform="translate(-70.3 -20.4)">
          <path d="M2 32.3l12.9-20 5.4 8.7L32.1 8.9l10 12L51 3.2l22.6 35.8L.2 36.4z"/>
          <ellipse cx="12" cy="3.9" rx="3.8" ry="3.8"/>
        </g>
      </g>
    </g>
    <path transform="rotate(-78.8 162.5 91.8)" d="M-7.5 42.9l216.8-1-.7 160.3-216.8 1z" opacity=".5" fill="url(#f)"/>
    <path fill="#FFF" d="M83 245.3L124 39.8l153.5 30.5-40.9 205.5z"/>
    <path fill="#E0E0E0" d="M133.2 51.5L242 73.2l-.4 1.6-108.9-21.6zM102.2 207.5L211 229.2l-.3 1.6-109-21.6zM100.3 217l84.1 16.7-.3 1.7-84.1-16.7z"/>
    <path fill="#6C63FF" opacity=".7" d="M98.4 226.5l31.4 6.2-.4 1.7-31.3-6.2zM131.3 61L185.7 72l-.3 1.6L131 62.7z"/>
    <path fill="#E0E0E0" d="M129.4 70.5L227.6 90l-.4 1.7-98.1-19.5z"/>
    <path fill="#3AD29F" opacity=".7" d="M127.5 80l24 4.8-.4 1.6-24-4.7z"/>
    <path fill="#E0E0E0" d="M125.6 89.5l109 21.7-.4 1.6-108.9-21.6z"/>
    <path transform="rotate(-78.8 195 28.7)" d="M26.2-11.5l57.1.7 1.2 99.3-57-.7z" opacity=".5" fill="url(#g)"/>
    <path fill="#FFF" d="M135.8 130.1l96.5 19.2-10.9 55-96.5-19.3z"/>
    <path fill="#E0E0E0" d="M123.7 99l109 21.7-.4 1.6-108.9-21.6z"/>
    <path fill="#6C63FF" d="M144.4 139.6l12 2.4-8 40-12-2.4z"/>
    <path fill="#3AD29F" d="M163.2 157l12 2.4-5.3 26.8-12-2.3z"/>
    <path fill="#F55F44" d="M182.2 173.7l12 2.4-2.9 14.4-12-2.4z"/>
    <path fill="#FDD835" d="M206.6 163.1l12 2.4-5.8 29.3-12-2.4z"/>
    <path d="M254.7 126.3a56.3 56.3 0 1 0-9.2 85.6l40.7 42.3c1 1 2.7 1 3.8 0l10.2-9.7c1-1 1-2.8 0-3.9l-40.6-42.2c16-22 14-52.5-4.9-72.1zm-12.7 68a40.2 40.2 0 1 1-55.7-58.1 40.2 40.2 0 0 1 55.7 58z" fill="url(#h)" fill-rule="nonzero"/>
    <path d="M183.5 154c-4.7 0-4.7 7 0 7s4.7-7 0-7z" fill="url(#i)"/>
    <path d="M214.2 132c-12-.3-23 5.7-28.8 14.7-1.9 3 3.5 5.6 5.4 2.6 4.8-7.4 14-12.2 24-12 10.3.3 19.8 6.2 24.8 14.4 1.9 3 6.9.2 5-2.8a37.2 37.2 0 0 0-30.4-16.9z" fill="url(#j)"/>
    <path d="M258.7 124.3a56.3 56.3 0 1 0-9.2 85.6l40.7 42.3c1 1 2.7 1 3.8 0l10.2-9.7c1-1 1-2.8 0-3.9l-40.6-42.2c16-22 14-52.5-4.9-72.1zM246 192.2a40.2 40.2 0 1 1-55.7-58 40.2 40.2 0 0 1 55.7 58z" fill="#6C63FF" fill-rule="nonzero"/>
    <path d="M185.5 152c-4.7 0-4.7 7 0 7s4.7-7 0-7zM218.2 129c-12-.3-23 5.7-28.8 14.7-1.9 3 3.5 5.6 5.4 2.6 4.8-7.4 14-12.2 24-12 10.3.3 19.8 6.2 24.8 14.4 1.9 3 6.9.2 5-2.8a37 37 0 0 0-30.4-16.9z" fill="#6C63FF"/>
    <path fill="#47E6B1" d="M45 240h1v7h-1z"/>
    <path fill="#47E6B1" d="M49 242v1h-7v-1z"/>
    <path d="M205.4 3.6a2 2 0 0 1-1-2.4V1a1 1 0 0 0-1.8-.4 2 2 0 0 1-2.4 1h-.2a1 1 0 0 0-.4 1.8 2 2 0 0 1 1 2.4V6a1 1 0 0 0 1.9.4 2 2 0 0 1 2.3-1h.2a1 1 0 0 0 .6-1.7l-.2-.1z" fill="#4D8AF0"/>
    <path d="M51.4 55.6a2 2 0 0 1-1-2.4V53a1 1 0 0 0-1.8-.4 2 2 0 0 1-2.4 1H46a1 1 0 0 0-.4 1.8 2 2 0 0 1 1 2.4v.2a1 1 0 0 0 1.8.4 2 2 0 0 1 2.4-1h.2a1 1 0 0 0 .4-1.8zM273.4 274.6a2 2 0 0 1-1-2.4v-.2a1 1 0 0 0-1.8-.4 2 2 0 0 1-2.4 1h-.2a1 1 0 0 0-.4 1.8 2 2 0 0 1 1 2.4v.2a1 1 0 0 0 1.8.4 2 2 0 0 1 2.4-1h.2a1 1 0 0 0 .4-1.8z" fill="#FDD835"/>
    <circle fill="#F55F44" cx="116" cy="28" r="3"/>
    <circle fill="#F55F44" cx="298" cy="61" r="3"/>
    <circle fill="#4D8AF0" cx="283" cy="133" r="3"/>
    <circle fill="#47E6B1" opacity=".5" cx="3" cy="10" r="3"/>
  </g>
</svg>
