<svg width="344" height="193" viewbox="0 0 344 193" xmlns="http://www.w3.org/2000/svg">
  <defs>
    <linearGradient x1="50%" y1="100%" x2="50%" y2="0%" id="a">
      <stop stop-color="gray" stop-opacity=".3" offset="0%"/>
      <stop stop-color="gray" stop-opacity=".1" offset="54%"/>
      <stop stop-color="gray" stop-opacity=".1" offset="100%"/>
    </linearGradient>
    <linearGradient x1="50%" y1="100%" x2="50%" y2="0%" id="b">
      <stop stop-color="gray" stop-opacity=".3" offset="0%"/>
      <stop stop-color="gray" stop-opacity=".1" offset="54%"/>
      <stop stop-color="gray" stop-opacity=".1" offset="100%"/>
    </linearGradient>
  </defs>
  <g fill="none" fill-rule="evenodd">
    <path d="M191.4 26.6c-19.9-.1-38.9-5.2-57-10.8C116.1 10.3 98.1 4 78.6 1.3 66.3-.4 52-.4 42.1 5.6c-9.5 5.7-12.4 15.3-13.8 24.2-1.1 6.7-1.7 13.7 2 19.8C32.6 54 37 57.4 40 61.5c10.6 14.2 3.8 32-7 46.4-5 6.7-10.9 13.2-14.7 20.3-3.9 7.1-5.5 15.2-1.9 22.3 3.7 7 12.1 12.1 21.2 15.7 18.5 7.1 40 8.8 61.1 9.5 46.6 1.6 93.3-.7 139.9-3 17.2-.8 34.5-1.7 51.4-4.4 9.4-1.5 19-3.7 25.8-8.8 8.6-6.4 10.5-17 4.4-24.5-10-12.8-37.1-15.4-44.3-29.2-3.9-7.6-.3-16.3 5-23.6 11.4-15.5 30.7-29.5 31.3-47 .4-12-9.3-23.8-24-29.1-15.5-5.7-36.7-4.4-47.7 5.7-11.4 10.5-31.7 14.9-49.2 14.8zM261.6 188.2c.9 2-5.7 4-13.9 4.6-7.3.5-13.3-.4-14.1-2-.8-1.5 3.9-3.3 11-4.2 8-.9 16-.2 17 1.6z" fill="#6C63FF" opacity=".1"/>
    <path fill="#FFF" d="M69.2 88.3L170 52.8v122.7l-100.8-2z"/>
    <path fill="#6C63FF" opacity=".2" d="M69.2 88.3L170 52.8v122.7l-100.8-2z"/>
    <path fill="#FFF" d="M0 108.6l57.5-20.3v85.1H0z"/>
    <path fill="#6C63FF" opacity=".2" d="M0 108.6l57.5-20.3v85.1H0z"/>
    <path fill="#FFF" d="M170 52.8L271 88.3v85.1L170 175.5z"/>
    <path fill="#6C63FF" opacity=".5" d="M170 52.8L271 88.3v85.1L170 175.5z"/>
    <path fill="#FFF" d="M341.1 108.9L283 88.3v85.1H341z"/>
    <path fill="#6C63FF" opacity=".5" d="M341.1 108.9L283 88.3v85.1H341z"/>
    <path d="M33.5 123.4c-.4 0-.7.5-.7 1.2V140a9 9 0 0 1-1 4.4c-.7 1.1-1.7 1.9-2.7 1.9h-.6c-1 0-2-.7-2.7-2a8.9 8.9 0 0 1-1.1-4.4V120a6 6 0 0 1 .8-3c.5-1 1.2-1.4 2-1.4.7 0 1.4.5 1.9 1.3.5 1 .8 2 .7 3.2v18.5c0 1.4-.6 2.6-1.3 2.6-.7 0-1.4-1-1.4-2.6V128c0-.7-.3-1.2-.7-1.2-.4 0-.8.5-.8 1.2v10.6c0 2.8 1.3 5 2.9 5 .8 0 1.5-.5 2-1.4.6-1.1.9-2.4.8-3.6V120c0-1.7-.4-3.4-1.2-4.8-.8-1.4-1.8-2-3-2-1 0-2.1.6-3 2a9.6 9.6 0 0 0-1.1 4.9v19.8c0 2.3.5 4.6 1.5 6.2 1 1.6 2.3 2.5 3.6 2.5h.7c1.3 0 2.6-.9 3.6-2.5a13.2 13.2 0 0 0 1.6-6v-15.5c0-.7-.4-1.3-.8-1.3z" fill="#FFF"/>
    <path d="M175.2 157.7s1.9 2.4-.9 6c-2.7 3.8-5 6.9-4 9.2 0 0 4-6.9 7.4-7 3.4 0 1.2-4.1-2.5-8.2z" fill="#6C63FF"/>
    <path d="M175.2 157.7l.4.7c3.3 3.9 5 7.5 1.9 7.5-3 .1-6.5 5.4-7.4 6.7l.1.3s4.2-6.8 7.5-7c3.4 0 1.2-4.1-2.5-8.2z" fill="#000" opacity=".1"/>
    <path d="M178.7 160.8c0 .8-.1 1.5-.2 1.5-.2 0-.2-.7-.2-1.5 0-.9 0-.5.2-.5.1 0 .2-.4.2.5z" fill="#FFD037"/>
    <path d="M179.9 161.8c-.8.4-1.4.7-1.5.6 0-.1.5-.6 1.3-1 .7-.4.4-.1.5 0 0 .1.4 0-.3.4z" fill="#FFD037"/>
    <path d="M165.3 157.7s-1.9 2.4.9 6c2.7 3.8 5 6.9 4 9.2 0 0-4.1-6.9-7.5-7-3.3 0-1.1-4.1 2.6-8.2z" fill="#6C63FF"/>
    <path d="M165.3 157.7a3 3 0 0 0-.4.7c-3.3 3.9-5 7.5-1.9 7.5 3 .1 6.5 5.4 7.3 6.7v.3s-4.2-6.8-7.6-7c-3.3 0-1.1-4.1 2.6-8.2z" fill="#000" opacity=".1"/>
    <path d="M161.8 160.8c0 .8 0 1.5.2 1.5.1 0 .2-.7.2-1.5 0-.9 0-.5-.2-.5-.1 0-.2-.4-.2.5z" fill="#FFD037"/>
    <path d="M160.6 161.8c.8.4 1.4.7 1.5.6 0-.1-.5-.6-1.3-1-.7-.4-.4-.1-.5 0 0 .1-.5 0 .3.4z" fill="#FFD037"/>
    <ellipse fill="#6C63FF" opacity=".1" cx="170.2" cy="188.6" rx="19.6" ry="3"/>
    <path d="M180.3 169.6v.8l-.2 1v.5l-.2 1v.5l-.2 1-1.5 12.3c-.1 1.1-1.9 2-4 2h-7.9c-2.1 0-4-.9-4-2l-1.6-12.2v-1l-.1-.5-.2-1.1v-.5l-.2-1v-.8c-.1-.6.8-1.1 2-1.1h16c1.2 0 2.2.5 2.1 1.1z" fill="#444053"/>
    <path fill="#9D9CB5" d="M180.2 170.4v1h-19.8l-.2-1zM180 171.9v1h-19.4l-.2-1zM179.9 173.4l-.2 1h-19v-1z"/>
    <path d="M132 103.1l-3 4s0 .1-.2 0l-3-.7a.3.3 0 0 1-.3-.2l-.6-4.2.1-.3 3-4c.3-.3.2-.7 0-1a3.3 3.3 0 0 0-2.3-1 6 6 0 0 0-4 2.7 10.6 10.6 0 0 0-1.6 9.2c.2.5.4 1.1-.1 1.8L106.5 126c-1.2 1.3-1.1 3.9 0 5.4.5.6 1.3 1 2.1 1s1.6-.4 2-1c0 0 12-17 12.7-17.8.1-.2.4-.4.7-.4.2 0 .4 0 .6.2.6.4 1.4.6 2.2.6 1.8 0 3.7-1 4.8-2.6a9.5 9.5 0 0 0 2-5.3c0-1-.2-2.1-.7-3a.5.5 0 0 0-.8-.1zm-22.7 26.4a.8.8 0 0 1-1.3 0c-.4-.5-.4-1.2 0-1.7a.8.8 0 0 1 1.3 0c.4.5.4 1.2 0 1.7zM239 110.8c-.7-9.6-7.3-17-15.3-17-5.2 0-9.9 3.2-12.7 8.2a6 6 0 0 0-2.7-.7c-4 0-7.3 4.4-7.4 9.4-4 1.6-6.8 6.6-6.8 11.8 0 6.4 4.2 12.1 9.4 12.1h34c5.1 0 9.3-5.7 9.3-12 0-5.8-3.3-10.8-7.7-11.8zm-7.6-2.2l-13.7 17.2c-.2.2-.7.7-1.2.7s-1-.3-1.2-.8l-5.8-7.1a.6.6 0 0 1 0-.7l1.8-2.3.3-.2c.1 0 .2 0 .3.2l4.6 5.7 12.5-15.7.3-.2c.1 0 .2 0 .3.2l1.8 2.3c.2.2.2.5 0 .7z" fill="#FFF" fill-rule="nonzero"/>
    <ellipse fill="#FFF" cx="322.4" cy="121.9" rx="3.1" ry="4.2"/>
    <path d="M322.4 127.6l-1-.1-3 4.2c-.1 0-.1.1 0 .2l4.8 7c.4.4.4 1 0 1.5 0 .2-.3.3-.6.3a.8.8 0 0 1-.6-.3l-4.8-7a.1.1 0 0 0-.2 0l-1.2 1.7c-1 1.3-2.3 1.1-3.8 1.1-1.4 0-2.8-.7-3.8-2.1l-1.1-1.6a.1.1 0 0 0-.2 0l-5 7c0 .2-.3.3-.5.3a.8.8 0 0 1-.6-.3c-.3-.5-.3-1.1 0-1.6l4.9-7v-.2l-7-9.5-.2.1v19c0 1.5.9 2.8 2 2.8l23 1c1.1 0 2-1.3 2-2.8v-15.4c-.7 1-1.8 1.7-3 1.7z" fill="#FFF"/>
    <path d="M318.1 121.9c0-1 .2-2 .5-2.8l-18-1c-.6 0-1 .3-1.4.7l10.3 13.8c.5.9 1.5 1.4 2.5 1.4s1.9.5 2.6-.5l5.2-7c-1-1.1-1.7-2.8-1.7-4.6z" fill="#FFF"/>
    <ellipse fill="#6C63FF" opacity=".1" cx="341.1" cy="174.9" rx="2.6" ry="1"/>
    <ellipse fill="#6C63FF" opacity=".1" cx="283.6" cy="175.7" rx="3.2" ry="1"/>
    <path d="M258.7 140.7s.3-.3.2-.6v-.4s-.8-3.2-1.1-3.5l-.5-.8v-.2c0-.4 0-.7-.2-1a2.2 2.2 0 0 1-.4-1.3c-.2-.4-.6-.8-1.1-1l.3-2c.1-2-.7-4.2-1.5-6.2-.1-.5-.4-1-.6-1.4-.8-.9-1.8-1.5-3-1.6-.4 0-.9 0-1.3.2a16.4 16.4 0 0 0-2 1.6l-.2.1-.1.2-.2.2-.1.1-.2.2v.2h-.1l-.1.2-.1.3v.2l-.4.6-.2.3-.3.4V127.4l.4.6.3.4.1.2.2.3c.5 1 .5 2 0 2.8l-.2.1v.3.6h-.2l-.4.2h-.6l-.7.4s-1.2.2-1.6-.2c-.4-.3-1.7-.5-1.7-.5s-.4-.7-.9-1c-.4-.2-1.4-.6-1.4-.9l-.4-.6-.7-.1v-.1l-.9-1.5s-1-1.2-1.6-1.3c-.6-.1.8 1.3.9 1.3a1 1 0 0 0-1.3.3c-.4.5.7 1.6 1.5 2.3h.1v.3c.4 1.7 2.2 3.2 2.2 3.2s.2 1 1 1.2c.5.2 3.4 1.5 5 1.8-.1.3-.3 1 .4 2.2 0 0 .1 2-.2 2.3-.4.3-.3 3.2-.3 3.2s-1.3 5.1 0 6.2l.2.2v1.5c-.3.5.1 1.8.1 1.8s-1.2 6.9-.7 9.3c.4 1.8.5 3.7.5 5.5 0 0-.2 2.2.8 3.5l.1.9.5 1.8c.2.4.7 2.1.3 2.6-.4.5.4 5.6.4 5.6s-.6 1.5 0 2.4c-.3 0-.7 0-1-.2-.7-.2-.2.7.6 1.3l-1 2.2a9 9 0 0 1-3 0c-1-.2.6 1.6 2 2l3.3.2 1-1.1h2.4l-.1 1h.6v-1l1-.1v-2.1h.4v-.6l1.3.3 1.1-9.2s.1-3.4.4-5.3c.3-1.9-.6-8.3-.6-8.3l-.1-.9v-4l.4-2v-1c1.9-3.9-.4-7.4-1.3-8.4l.1-.2a7 7 0 0 0-.4-1l.4-.6.3.4s.5-1.1 1-1.5c.6-.5 3-4.6 3-4.6s.6-.4.3-.7c-.3-.3-.1-.3-.1-.3zm-7.6 32.4l-.3-.3v-1.5l.3 1.1v.7zm1.4 15v-.2.2zm.4-41.7l.1-.4.2-.2-.2-.4s.3.2.4-.2v-.2c0-.3-.1-.6-.3-.8l1.3-2.9.5.1-.7 2.4-1 2.4h.1l-.4.2z" fill="url(#a)" fill-rule="nonzero"/>
    <path d="M248.3 186.3s-1.8.2-2.6 0c-.9-.4.2 1.2 1.4 1.6.8.2 1.7.4 2.5.4l1.4-1.3 1.5.1-.3 1.5h.5l.1-1.9-4.5-.4z" fill="#444053"/>
    <path d="M248.3 186.3s-1.8.2-2.6 0c-.9-.4.2 1.2 1.4 1.6.8.2 1.7.4 2.5.4l1.4-1.3 1.5.1-.3 1.5h.5l.1-1.9-4.5-.4z" fill="#000" opacity=".1"/>
    <path d="M245.7 189.6s-2 .4-3.2.2c-1-.3.5 1.5 2 1.8 1 .2 2 .3 3 .2l1.6-1.7h1.8l-.2 1.7h.6v-2.2h-5.6z" fill="#444053"/>
    <path d="M245.7 189.6s-2 .4-3.2.2c-1-.3.5 1.5 2 1.8 1 .2 2 .3 3 .2l1.6-1.7h1.8l-.2 1.7h.6v-2.2h-5.6z" fill="#000" opacity=".1"/>
    <path d="M253.6 149.2s3.7 4 1.5 8.6v1l-.4 2v4l.1 1s.8 6.2.6 8.1c-.3 2-.4 5.3-.4 5.3l-1 9-5.7-1 2.5-12.4.1-2.2s-1-2.7-.6-4c.5-1.5 0-18.9 0-18.9l3.3-.5z" fill="#444053"/>
    <path d="M251 168.7c-.7 1.3-.3 4.2-.3 4.2.8.7.4 7 .4 7s.6 6.3 1 7c.3.8.2 3.8.2 3.8-4.2.7-7-1-7-1l1.4-3.2.2.2-.2-.3c-.6-.8 0-2.4 0-2.4s-.8-5-.4-5.5c.3-.5 0-2.2-.3-2.6l-.5-1.8-.1-1c-1-1.2-.8-3.3-.8-3.3a28 28 0 0 0-.4-5.5c-.6-2.4.6-9.2.6-9.2s-.4-1.3 0-1.8V152l-.2-1.2 8-1.4.4.8c2.7 4.8.9 6.6.9 6.6l-1.7 5.2s-.6 5.5-1.3 6.7z" fill="#444053"/>
    <path d="M238.3 130.8l-1.1 1-.5-.5c-.8-.6-2-1.8-1.5-2.3a.9.9 0 0 1 1.2-.2s-1.3-1.4-.8-1.3c.5 0 1.6 1.3 1.6 1.3l.8 1.5.3.5zM253.6 146.5l-1.4.4 1 1.8 1.2-1.5z" fill="#EFB7B9"/>
    <ellipse fill="#EFB7B9" cx="250.4" cy="126.1" rx="3.8" ry="3.8"/>
    <path d="M248.2 127.5s3.4 5.5.1 6c-3.3.4 4.5 3.7 4.5 3.7l2.9-2.9s-3-5.2-2.6-7.1c.5-2-5 .3-5 .3z" fill="#EFB7B9"/>
    <path d="M253 150.2l-2.3.5s-4.3 2-5.9 1.3l-.2-1.2 8-1.4.4.8z" fill="#000" opacity=".1"/>
    <path d="M257 135.8l-.8 1.6-.9 1.8-.1.3-1 2.2-1.4 2.9s.5.5.4 1c-.2.4-.4.2-.4.2s.3.4 0 .5c-.1.2-.2.4-.1.6l1.2 2.4c.2.6-3.2 1.2-3.2 1.2s-5 2.2-6.2 1c-1.2-1 0-6 0-6s0-3 .3-3.2c.3-.3.2-2.3.2-2.3-.8-1.5-.3-2.4-.3-2.4l-.2-4 .7-.4h.9c.5-.2 1.3-.4 1.5-.3.4.3 3-.3 3-.3a32.5 32.5 0 0 1 4.6-.2c.6.2 1 .5 1.2 1 0 .5 0 1 .3 1.4.5.7.3 1 .3 1z" fill="#FF6484"/>
    <path d="M238.3 130.8l-1.1 1-.5-.5c-.1-1 .7-1 1.3-1l.3.5z" fill="#000" opacity=".1"/>
    <path d="M245 133.7h-.5s-1.2.1-1.5-.2c-.4-.4-1.8-.5-1.8-.5s-.3-.7-.7-1c-.5-.2-1.4-.6-1.5-.9a2 2 0 0 0-.4-.6s-2.1-.6-1.8 1.1c.3 1.8 2 3.2 2 3.2s.3 1 1 1.2c.6.3 5 2.3 5.7 1.8.7-.5-.5-4.1-.5-4.1z" fill="#FF6484"/>
    <path d="M256.7 134.7a2 2 0 0 1-.3-1.3c-.2-.5-.6-.9-1.2-1a3 3 0 0 0-.5 0c.5 0 .9.4 1 .9 0 .5.2 1 .4 1.3.5.8.3 1.1.3 1.1l-.8 1.6-.9 1.8v.3l-1.1 2.2-1.4 2.8s.5.6.4 1c-.2.5-.4.3-.4.2 0 0 .3.5 0 .6-.1.2-.2.4-.1.6l1.3 2.4c.2.6-3.3 1.2-3.3 1.2s-3.4 1.5-5.3 1.4c1.6.6 5.9-1.3 5.9-1.3s3.5-.6 3.2-1.2l-1.2-2.4c-.1-.2 0-.4.1-.6.3-.1 0-.5 0-.5s.2.2.4-.3c0-.4-.4-1-.4-1l1.4-2.8 1-2.2.1-.3.9-1.8.8-1.6s.2-.3-.3-1z" fill="#000" opacity=".1"/>
    <path d="M256.5 135.4l.5.4a23.8 23.8 0 0 1 1.5 4.7c.1.3-.2.6-.2.6s-.2 0 0 .3c.4.3-.2.7-.2.7s-2.4 4-2.9 4.5c-.5.4-1 1.6-1 1.6s-1-1.6-1.3-1.7l1-2.3s.8-3.2 1.3-3.7c.5-.6-.3-2.6-.3-2.6l1.6-2.5z" fill="#FF6484"/>
    <path d="M256.8 141.3c-.4.5-1.2.6-2 .6h-.2l-.5-.2c-.5-.1-1-.4-1.4-.7l-.3-.2c-.3 0-.6.1-.7.4l-.4.8c-.3.4-.9.7-1.4.6a5 5 0 0 1-1.6-.3c.4-.5.8-1 1-1.7v-1.3c0-2-.8-4.2-2.4-5.4-.3-.2-.7-.5-.8-.8.5-.1 1.3-.3 1.5-.1.4.2 3-.4 3-.4a32.5 32.5 0 0 1 4.6-.2c-.1.9-.2 1.8 0 2.6 0 .6.3 1.1.5 1.6l.5.8c.4.8.9 1.6 1 2.5 0 .5-.1 1-.4 1.4zM251 145.4h.7l.5.2h-1.5c-.4 0-1 0-1.3-.2.3-.3 1.2 0 1.6 0z" fill="#000" opacity=".1"/>
    <path d="M245.8 125.6c-.4.7-.5 1.5-.2 2.2.2.6.7 1 1 1.6.4.8.3 1.8-.2 2.6l-.2.5c0 .5.4.8.8 1 1.7 1.2 2.4 3.4 2.5 5.5v1.3l-1.1 1.7c.5.2 1 .3 1.6.3.6 0 1.1-.2 1.4-.7l.4-.7c.1-.3.4-.5.7-.4.1 0 .2 0 .3.2.7.4 1.4.7 2.2.8.7.1 1.5 0 2-.5.2-.4.3-1 .3-1.4-.2-1.8-1.7-3.2-2-5-.3-1.3.2-2.7.3-4.2a14.8 14.8 0 0 0-2-7.5 4 4 0 0 0-3-1.6l-1.1.1-1.1.8c-.7.6-1.5 1.2-1.9 2.1l-.5 1" fill="#925978"/>
    <g opacity=".1" fill="#000">
      <path d="M246.5 124.9l.5-1.1.6-1c-.5.5-.8 1-1 1.5-.3.3-.4.7-.5 1l.2-.2-.2.3.4-.5zM255.5 141c-.8 0-1.6-.4-2.2-.8l-.3-.2c-.3 0-.6.1-.7.4l-.1.1h.3c.1 0 .2 0 .3.2.7.4 1.4.7 2.2.8.7.1 1.5 0 2-.5v-.2c-.4.2-1 .3-1.5.2z"/>
      <path d="M250.5 141.8c-.6 0-1.1-.1-1.7-.3.5-.5.9-1 1-1.7a4 4 0 0 0 .2-1.3c-.2-2-.9-4.3-2.6-5.4-.3-.3-.8-.6-.7-1l.2-.5c.5-.9.5-1.9.1-2.7l-1-1.6c-.2-.6-.2-1.3.1-2 0 .2-.1.2-.2.3l-.2.3c-.4.6-.4 1.3-.1 2 .2.5.7 1 1 1.5.4.8.3 1.8-.2 2.6l-.2.5c0 .5.4.8.8 1 1.7 1.2 2.4 3.4 2.5 5.5v1.3l-1.1 1.7c.5.2 1 .3 1.6.3.6 0 1.1-.2 1.4-.7a2 2 0 0 1-1 .2z"/>
    </g>
    <path d="M22.5 179.3c-.7 0-1.3-.3-1.9-.6v-.3a1 1 0 0 1 0-.5l-.1-.5v-.7c-.2-.3-.3-.6-.3-1a344.5 344.5 0 0 1 0-4.3v-.5c-.1-.2-.2-.5-.1-.7 0-.2 0-.4-.2-.6l.4-1.8s.2-6-.4-7.9c0-1.2-.7-3.1-.3-4.5l.5-1.7-2.3-5.5a13.8 13.8 0 0 0-1-2.2l.1-.6c0-.3 0-.7.2-.9l.3-.2c.4-.2.6-.7.6-1.1a2 2 0 0 0-.5-1v-.4c0-.7-.3-1.4-.8-2 0-.4-.1-.7-.3-1v.1-.1l-.2-.1c-1.1-.8-2.5-.9-3.7-.2a2 2 0 0 0-.7.6c-.4.6-.3 1.3-.5 2-.2.6-.6 1.1-1 1.7-.4.5-.7 1.2-.5 1.8 0 .5.4.9.4 1.4 0 .5-.4.9-1 1h-.1c.5.2 1 .4 1.5.4v.2l-.8 3.8s.3 2-.3 3.8c-.6 1.6-.5 5-.5 5s1.6-.7 1.7-.2v.6l.6.3v1.7c.2.3 0 1 0 1v1.1L11 167l-.5 1.4s.4.5 0 .5c-.4.1-.4.7-.4.7s-.5.4-.5.6a11 11 0 0 0-2.7 5.7s-.5.5-.5 1v.6l-.2 1.1c-.4.5-1 1.2-1 2l-.2.5 1.9.8.1-.2s.9 1 1.8 1.1h.5c.6 0 1.1 0 1.6-.2 0 0 .7-.9-1.1-1 0 0-1-1.3-1-1.8l.1-.6v-.2h.1v-.3l.1-.3c0-.1-.1-.1 0-.2.2-.1.2 0 .2-.3 0-.2-.1-.1 0-.4.3-.2 0-.6 0-.6.3-.2.5-.5.5-.8a12 12 0 0 1 2-3.7c.3-.2.3-.8.3-.8h.6c.3-.2.5-.5.6-.8 0 0 1.9-4.6 1.9-6.3l.1-.4s.7 1 .6 1.6c0 .6.5 1 .5 1v2l.2 1c0 .4.2.7.1 1v1.6c0 .2 0 2.3.6 3.3 0 0 .2.6 0 1-.3.5.2 1 .2 1s-.3.5 0 .8c.2.3.3.6.2.9-.1.4-.2 1 0 1.5v.6l2-.1v-.4c.7.2 1.5.3 2.3.2.7 0 1.3-.4 1.7-.9 0 0 .7-1.3-1.3-.8z" fill="url(#b)"/>
    <path d="M23.4 180.1c-.4.5-1 .8-1.6.9-.7 0-1.5 0-2.3-.2v.4l-1.8.1v-.6c-.2-.5-.1-1 0-1.6l.2-.6s1.5-1.3 2-.3l.5.5c.5.3 1.1.6 1.8.7 2-.5 1.2.7 1.2.7z" fill="#FF6484"/>
    <path d="M18.7 178.9s0 1.2.9 1.1c.8 0 1-.4.7-.8l-.5-.7-1.1.4z" fill="#000" opacity=".1"/>
    <path d="M11 182.5c-.4.2-.9.3-1.4.3H9c-1-.3-1.7-1.2-1.7-1.2l-.2.2-1.8-.8.2-.5c0-.7.6-1.5 1-2l.4-.3 2.2.3v1.2c-.2.6.9 1.8.9 1.8 1.7.1 1 1 1 1z" fill="#FF6484"/>
    <path d="M6.7 177.1h-.1z" fill="#444053"/>
    <path d="M9.2 178.5v.6l-2.6-.4v-.1l.4-.4 2.2.3zM20.4 178.7c-.4.9-2.7.7-2.7.7v-.3l.2-.6s1.5-1.3 2-.3l.5.5z" fill="#000" opacity=".1"/>
    <path d="M20.4 178.4c-.2 1-2.7.8-2.7.8 0-.3 0-.6-.2-.8-.3-.4 0-1 0-1s-.5-.4-.3-.8c.3-.4 0-1.1 0-1.1-.6-1-.4-3-.5-3.2v-.9-.7c.1-.3-.2-.6-.1-1l-.1-1v-2c-.4-.2-.6-.6-.5-1 0-.7-.6-1.6-.6-1.6l-.1.4c0 1.7-1.8 6.3-1.8 6.3l-.6.8h-.6s0 .6-.3.7a12 12 0 0 0-2 3.7c0 .3-.1.6-.4.8 0 0 .3.4 0 .7-.2.2 0 .1 0 .4 0 .2 0 .1-.2.2v.5l-.1.4-2.7-.4.2-1.2-.1-.3s.2 0 .1-.3c0-.5.4-1 .4-1a11 11 0 0 1 3-6.2s.1-.7.5-.7 0-.6 0-.6l.5-1.4a773.2 773.2 0 0 1 .2-2.9v-.4-1a1 1 0 0 1 0-.5v-.9l.1-1.3s7.2-1.3 8-.3l.2.4c.6 1.9.4 8 .4 8l-.4 1.7.2.6v1.6a328.7 328.7 0 0 0 .3 4.8v.8l.1.4.1.5z" fill="#444053"/>
    <path d="M9.6 182.8H9a4 4 0 0 1-1.7-1.2l-.2.2-1.8-.8.2-.5 1.9.9s1.5.7 2 1.4zM21.8 181c-.7 0-1.5 0-2.3-.2v.4l-1.8.1v-.6h1.8c.8 0 1.6 0 2.3.3zM7.6 176.5h.3l.2.2.2.2.2.2.4.1v.1h-.2s-.2 0-.2-.2L8 177c-.2-.1-.6-.1-.7-.3h.3zM7.4 177h.1l.3.2-.5-.1-.2-.1h.3zM7.7 177.4H8l.2.2.6.2h-.6-.2-.2l-.4-.3c0-.2.3 0 .4 0zM19 178h.5l.5-.1v-.3c-.2 0-.4 0-.5.2h-.3l-.1.2zM19.6 178.3l-.5.2-.1-.1h.2l.4-.1zM18.2 178.2h.6l-.2.2h-.2l-.4-.1H18c-.2 0-.2-.1 0-.2h.3zM11.9 169l-.8-.2c.3 0 .5.1.8.3zM11.6 168.2l.6.1H12a2 2 0 0 0-.4-.1h-.2-.3.5zM12.4 168.6l.1.1a3 3 0 0 0-.5-.2h-.5l.9.1zM13 166.6c.3-.1.6-.3.8-.6 0 .3-.1.4-.3.6l-.6.2c-.2 0-.4 0-.6.2l-.5.3.2-.3a4 4 0 0 1 1-.4zM18.7 169.5c-.1 0-1.3.2-1.2 0h1.2z" fill="#000" opacity=".1"/>
    <path d="M17.4 142v.5a2.7 2.7 0 0 1-5.3-.8 2.6 2.6 0 0 1 5.3.2z" fill="#FBBEBE"/>
    <path d="M16.1 143s-.9 2.5-.4 3-3.5.8-3.5.8 1.7-3 1.5-3.7c-.1-.7 2.4 0 2.4 0z" stroke="#6C63FF" stroke-width=".5"/>
    <path d="M19.7 160v.2c0 1.2-2.2 3.6-2.7 3.2-.5-.5-3.8-1.2-3.8-1.2s-.5-.8-1-.8c-.3 0-.5 0-.8-.2v-1.4s7.3-1.2 8-.2c.2.1.2.3.3.4z" fill="#000" opacity=".1"/>
    <path d="M19.7 160c0 .6-.6 1.5-1.2 2.2-.6.7-1.2 1.2-1.5 1-.1-.2-.3-.2-.5-.3l-3.3-1s-.5-.7-1-.7-1.5-.5-1.5-.5v-.6c0-.5-1.5.2-1.5.2s-.1-3.4.4-5c.6-1.7.3-3.8.3-3.8l.8-3.8c.2-1 .5-1.8.7-2 .5-.3 3.3 0 3.3 0l1.6.2c.2 0 .3.2.4.3v.1l1 2 2.2 5.5s0 .4-.5 1.7c-.4 1.4.3 3.3.3 4.5z" fill="#65617D"/>
    <path d="M17.7 161.4l.8.8s.8 2.6-.2 2.4c-1-.3-1.8-1.7-1.8-1.7l1.2-1.5z" fill="#FBBEBE"/>
    <path d="M19.8 154c-2 0-2.5-2.7-2.5-2.7s-.1-2.8-.4-3.3l-.2-1.5 1 2 2 5.5z" fill="#000" opacity=".1"/>
    <path d="M19.9 153.8c-2 0-2.5-2.7-2.5-2.7s-.2-2.8-.4-3.3-.2-1-.2-1.5l.9 2 2.2 5.5z" fill="#65617D"/>
    <path d="M16.3 147s-.6-1.5-1.5 0a8 8 0 0 0-1 3.6l-.1 4.4.2.9c0 .3.6 1.2.6 1.2s.2 1.8.7 2.1l.5 1.5s0 1 .4 1.4c.2.3.2.7.1 1l2.1-.7s-.2 0 0-.5c.2-.7-.1-1.5-.1-1.5l-1.5-3.2c-.2-.5-.4-1-.3-1.4l.1-6.4c.1-.8-.2-2.3-.2-2.3z" fill="#000" opacity=".1"/>
    <path d="M16.5 146.8s-.5-1.5-1.5 0a8 8 0 0 0-1 3.6l-.1 4.3.3 1 .5 1.2s.2 1.8.7 2.1l.5 1.5s0 1 .4 1.4c.2.3.3.7.2 1l2-.7s-.2 0 0-.6-.1-1.4-.1-1.4l-1.5-3.3c-.2-.4-.4-.9-.3-1.4l.1-6.4c.1-.8-.2-2.3-.2-2.3z" fill="#FF6484"/>
    <path d="M16.6 160.4h.2l.2.2h.3a2.7 2.7 0 0 1-.5 0h-.1l-.2-.1-.1-.1h.2zM17.4 161H18a1 1 0 0 1-.6.1h-.2s-.2.3-.2 0c0-.1.3 0 .4 0zM16.3 139.2l-.3-.3.3.2v.1zM16.7 146.2l-.3.3-.3.1a1 1 0 0 1-.3 0l-.5-.2-.9-.3c-.5-.1-1 0-1.3.3l-.7 1c-.4.4-1 .4-1.6.3.2-1 .4-1.8.6-2 .6-.3 3.3 0 3.3 0l1.6.2c.2 0 .3.2.4.3zM12 142c0-1.1.7-2 1.7-2.5 1-.4 2.1-.2 2.9.6v1.3l.7 1.1a2.6 2.6 0 0 1-5.2-.6z" fill="#000" opacity=".1"/>
    <path d="M16.4 139c-1-.9-2.6-1-3.9-.3a2 2 0 0 0-.7.6c-.3.6-.2 1.3-.4 2-.2.6-.6 1.1-1 1.6-.3.6-.6 1.2-.5 1.9 0 .4.4.9.4 1.3 0 .6-.5 1-1 1 .5.3 1 .5 1.5.5.6 0 1.2.1 1.6-.3l.7-1c.3-.3.8-.4 1.3-.3l1.4.5h.3c.4 0 .7-.5.7-.9 0-.3 0-.7.2-1l.3-.1c.4-.3.6-.7.5-1.2-.1-.8-1-1.2-1.2-2v-1.4c0-.4-.2-1-.6-1.1" fill="#444053"/>
    <path d="M17.8 143.3c-.2-.8-1-1.2-1.2-2-.2-.4 0-1 0-1.4l-.3-.9-.3-.2.2.9v1.3c.2.8 1.1 1.3 1.2 2 0 .5-.1 1-.5 1.2l-.3.2c-.2.2-.2.6-.2 1 0 .3-.3.8-.7.8a1 1 0 0 1-.3 0l-1.4-.5c-.4-.1-1 0-1.3.3-.3.3-.4.8-.7 1-.4.5-1 .4-1.6.4l-1-.3h-.2c.5.3 1 .5 1.6.5.5 0 1.2.1 1.6-.3.3-.3.3-.7.6-1 .4-.3.9-.4 1.4-.3l1.3.4h.4c.4 0 .6-.4.6-.8 0-.3 0-.7.3-1l.2-.2c.4-.2.6-.6.6-1z" fill="#000" opacity=".1"/>
    <path d="M28 181c.4 1.6-6.4 2.7-14.4 2.4-7.2-.3-12.8-1.6-13.2-3C0 179 4.9 178 12 178c7.9 0 15.4 1.4 16 3z" fill="#6C63FF" opacity=".1"/>
  </g>
</svg>
